<?xml version="1.0" standalone="no"?>
<!DOCTYPE svg PUBLIC "-//W3C//DTD SVG 20010904//EN"
 "http://www.w3.org/TR/2001/REC-SVG-20010904/DTD/svg10.dtd">
<svg version="1.0" xmlns="http://www.w3.org/2000/svg"
 width="500.000000pt" height="500.000000pt" viewBox="0 0 500.000000 500.000000"
 preserveAspectRatio="xMidYMid meet">

<g transform="translate(0.000000,500.000000) scale(0.100000,-0.100000)"
fill="#000000" stroke="none">
<path d="M2290 4239 c-405 -52 -777 -239 -1055 -530 -331 -347 -500 -794 -482
-1274 14 -357 119 -665 329 -962 77 -109 265 -299 378 -382 193 -142 456 -260
680 -306 32 -6 29 -3 -25 30 -260 158 -452 399 -540 679 l-32 101 -12 -55 c-7
-30 -15 -90 -18 -132 -3 -43 -9 -78 -13 -78 -13 0 -150 168 -214 263 -70 104
-91 158 -80 212 9 52 35 78 142 149 94 62 289 166 311 166 6 0 14 -12 17 -27
12 -48 72 -185 101 -227 21 -32 29 -63 40 -141 15 -121 40 -197 94 -287 131
-221 388 -380 652 -404 76 -7 207 2 207 14 0 4 -23 20 -52 36 l-52 29 52 18
c179 61 322 189 401 360 44 96 57 144 67 249 5 59 13 87 39 130 33 55 72 143
95 213 6 20 16 37 22 37 20 0 224 -111 307 -168 112 -76 146 -119 145 -181 -1
-73 -80 -201 -236 -382 l-63 -74 -6 80 c-3 44 -12 107 -19 140 -12 58 -13 59
-22 30 -36 -119 -56 -170 -93 -245 -105 -208 -269 -387 -461 -501 -78 -46 -68
-46 86 -2 605 173 1067 652 1219 1263 38 150 46 224 46 420 0 205 -8 273 -52
445 -175 680 -761 1198 -1461 1290 -120 16 -335 18 -442 4z m456 -400 c121
-72 298 -178 394 -236 96 -59 184 -111 195 -117 133 -74 408 -248 438 -277 83
-82 20 -151 -194 -212 -149 -43 -139 -43 -139 0 0 40 -27 104 -46 110 -7 2
-14 -7 -18 -21 -24 -97 -179 -164 -423 -185 -531 -45 -1220 -3 -1541 93 -97
29 -199 81 -213 109 -16 29 -2 80 29 110 47 45 1244 757 1273 757 17 0 112
-51 245 -131z m-1017 -1045 c3 -3 -8 -37 -36 -114 -7 -19 -31 53 -32 97 -1 31
0 32 32 26 17 -3 34 -7 36 -9z m1611 -10 c0 -33 -21 -116 -28 -110 -5 6 -41
106 -42 118 0 4 12 9 28 11 15 2 30 5 35 6 4 0 7 -11 7 -25z m-1370 -10 c127
-8 127 -8 96 -45 -14 -17 -26 -35 -26 -40 0 -11 -4 -12 55 7 35 11 81 14 154
12 100 -3 104 -2 114 20 10 21 15 22 137 22 122 0 127 -1 137 -22 10 -22 14
-23 114 -20 73 2 119 -1 154 -12 59 -19 55 -18 55 -7 0 5 -12 23 -26 40 -31
37 -31 37 96 45 52 3 117 8 143 12 l48 7 -2 -94 c-1 -52 4 -118 10 -148 14
-67 14 -215 1 -301 -23 -141 -105 -325 -177 -393 l-30 -27 19 72 c14 55 18
100 16 183 -3 102 -6 116 -36 178 -53 107 -144 187 -277 243 -43 19 -52 28
-63 63 -15 45 -27 45 -47 -3 -17 -39 -95 -71 -154 -63 -49 6 -111 36 -111 52
0 7 -8 23 -19 36 l-18 22 -14 -43 c-12 -38 -20 -45 -64 -62 -111 -43 -224
-138 -269 -227 -53 -101 -63 -243 -27 -381 l19 -75 -42 47 c-76 83 -143 238
-166 378 -14 90 -12 242 4 318 7 36 11 96 8 144 l-5 81 49 -7 c27 -4 92 -9
144 -12z m473 -395 c45 -10 69 -10 115 0 31 6 69 14 83 17 36 8 129 -39 192
-96 73 -66 97 -123 97 -236 0 -167 -57 -293 -194 -430 -59 -58 -102 -91 -156
-118 -68 -34 -75 -35 -82 -19 -14 37 -6 125 18 206 6 18 5 18 -20 2 -30 -20
-76 -108 -76 -146 0 -15 -4 -30 -9 -33 -5 -3 -35 14 -67 37 -131 97 -228 234
-264 372 -5 22 -10 81 -10 131 0 77 4 98 26 142 30 61 105 131 177 167 54 26
63 26 170 4z m-396 -791 c23 -16 68 -40 100 -55 32 -15 80 -44 107 -65 74 -58
192 -113 246 -113 53 0 172 54 246 113 27 21 83 54 124 74 41 20 90 47 109 59
l33 23 -7 -25 c-28 -95 -138 -214 -244 -267 -71 -35 -80 -37 -170 -37 -80 0
-106 4 -157 26 l-62 26 8 -27 c4 -15 13 -38 20 -50 12 -22 11 -23 -17 -17
-156 31 -305 152 -375 304 -39 87 -41 85 39 31z"/>
<path d="M1918 3422 c-187 -144 -303 -239 -295 -243 14 -7 207 -32 211 -27 2
2 94 117 205 256 111 138 198 252 194 252 -5 -1 -146 -107 -315 -238z"/>
<path d="M2455 2259 c-16 -11 -60 -29 -98 -40 -75 -23 -97 -46 -117 -118 -13
-48 -7 -108 15 -169 l14 -37 1 55 c2 75 21 123 51 131 13 4 59 18 102 31 l77
25 78 -25 c42 -13 88 -27 102 -31 29 -7 48 -58 50 -136 l1 -50 16 40 c8 22 16
69 17 105 1 52 -4 74 -24 110 -23 40 -31 46 -101 70 -42 14 -88 33 -102 43
-33 21 -44 21 -82 -4z"/>
</g>
</svg>
